<svg width="70" height="153" viewBox="0 0 70 153" fill="none" xmlns="http://www.w3.org/2000/svg">
<path d="M0 30.7765V91.6281C0 93.6648 0.710503 95.6377 2.00905 97.2068L16.9771 115.293C19.263 118.055 23.2668 118.643 26.25 116.654L64.7162 94.6735C67.4425 93.1156 69.125 90.2164 69.125 87.0764V22.831C69.125 20.703 68.3495 18.648 66.9437 17.0505L54.5528 2.96989C51.8249 -0.129975 47.3012 -0.900875 43.7006 1.12052L4.46657 23.1467C1.70783 24.6954 0 27.6128 0 30.7765Z" fill="#A8A7AC"/>
<path d="M15.8674 149.275C15.3575 150.163 14 149.802 14 148.777V109.513C14 109.076 14.2835 108.69 14.7002 108.559L42.1849 99.9211C43.0533 99.6482 43.8051 100.583 43.3521 101.373L15.8674 149.275Z" fill="#A8A7AC"/>
<path d="M14.2427 32.7667L31.9609 22.9453L36.7449 28.5319L32.02 36.8233L28.4173 32.6077L16.9595 38.9589L15.8964 40.8987V68.5175L17.6091 70.5393L28.9488 64.2536L33.1422 57.1348L36.863 61.4199L31.7838 70.3128L14.0655 80.1342L8.75 74.032V42.1589L14.2427 32.7667Z" fill="#111010"/>
<path d="M28.7537 81.5562L33.5365 78.9051L34.9665 80.5468V86.3968L33.5047 88.933L28.7378 91.5753L27.2919 89.9424V87.0174V84.0925L28.7537 81.5562ZM29.1986 88.4858L29.6594 89.0115L32.742 87.3028L33.028 86.7991V82.0029L32.5672 81.4771L29.5005 83.177L29.1986 83.7259V88.4858Z" fill="#A8A7AC"/>
<path d="M38.2813 76.275L43.064 73.6239L44.4941 75.2656V81.1156L43.0322 83.6518L38.2654 86.2941L36.8194 84.6612V78.8113L38.2813 76.275ZM38.7262 83.2046L39.187 83.7303L42.2695 82.0216L42.5556 81.5179V76.7217L42.0948 76.1959L39.0281 77.8958L38.7262 78.4447V83.2046Z" fill="#A8A7AC"/>
<path d="M46.3311 68.234L48.2537 67.1682V73.5995L51.1456 68.5628L53.6721 67.1624L50.8755 71.9464L54.0057 75.5161V77.5691L52.0831 78.6348V76.9634L49.5884 74.1859L48.2537 76.5063V80.7575L46.3311 81.8232V68.234Z" fill="#A8A7AC"/>
</svg>
